<svg width="323" height="119" viewBox="0 0 323 119" fill="none" xmlns="http://www.w3.org/2000/svg">
<path d="M10.2617 113H6.54688L6.57031 110.258H10.2617C11.1836 110.258 11.9609 110.051 12.5938 109.637C13.2266 109.215 13.7031 108.602 14.0234 107.797C14.3516 106.992 14.5156 106.02 14.5156 104.879V104.047C14.5156 103.172 14.4219 102.402 14.2344 101.738C14.0547 101.074 13.7852 100.516 13.4258 100.062C13.0664 99.6094 12.625 99.2695 12.1016 99.043C11.5781 98.8086 10.9766 98.6914 10.2969 98.6914H6.47656V95.9375H10.2969C11.4375 95.9375 12.4805 96.1328 13.4258 96.5234C14.3789 96.9062 15.2031 97.457 15.8984 98.1758C16.5938 98.8945 17.1289 99.7539 17.5039 100.754C17.8867 101.746 18.0781 102.852 18.0781 104.07V104.879C18.0781 106.09 17.8867 107.195 17.5039 108.195C17.1289 109.195 16.5938 110.055 15.8984 110.773C15.2109 111.484 14.3867 112.035 13.4258 112.426C12.4727 112.809 11.418 113 10.2617 113ZM8.53906 95.9375V113H5.02344V95.9375H8.53906ZM34.6484 104.07V104.879C34.6484 106.176 34.4727 107.34 34.1211 108.371C33.7695 109.402 33.2734 110.281 32.6328 111.008C31.9922 111.727 31.2266 112.277 30.3359 112.66C29.4531 113.043 28.4727 113.234 27.3945 113.234C26.3242 113.234 25.3438 113.043 24.4531 112.66C23.5703 112.277 22.8047 111.727 22.1562 111.008C21.5078 110.281 21.0039 109.402 20.6445 108.371C20.293 107.34 20.1172 106.176 20.1172 104.879V104.07C20.1172 102.766 20.293 101.602 20.6445 100.578C20.9961 99.5469 21.4922 98.668 22.1328 97.9414C22.7812 97.2148 23.5469 96.6602 24.4297 96.2773C25.3203 95.8945 26.3008 95.7031 27.3711 95.7031C28.4492 95.7031 29.4297 95.8945 30.3125 96.2773C31.2031 96.6602 31.9688 97.2148 32.6094 97.9414C33.2578 98.668 33.7578 99.5469 34.1094 100.578C34.4688 101.602 34.6484 102.766 34.6484 104.07ZM31.0977 104.879V104.047C31.0977 103.141 31.0156 102.344 30.8516 101.656C30.6875 100.969 30.4453 100.391 30.125 99.9219C29.8047 99.4531 29.4141 99.1016 28.9531 98.8672C28.4922 98.625 27.9648 98.5039 27.3711 98.5039C26.7773 98.5039 26.25 98.625 25.7891 98.8672C25.3359 99.1016 24.9492 99.4531 24.6289 99.9219C24.3164 100.391 24.0781 100.969 23.9141 101.656C23.75 102.344 23.668 103.141 23.668 104.047V104.879C23.668 105.777 23.75 106.574 23.9141 107.27C24.0781 107.957 24.3203 108.539 24.6406 109.016C24.9609 109.484 25.3516 109.84 25.8125 110.082C26.2734 110.324 26.8008 110.445 27.3945 110.445C27.9883 110.445 28.5156 110.324 28.9766 110.082C29.4375 109.84 29.8242 109.484 30.1367 109.016C30.4492 108.539 30.6875 107.957 30.8516 107.27C31.0156 106.574 31.0977 105.777 31.0977 104.879ZM182.68 98.8555L178.039 113H174.301L180.641 95.9375H183.02L182.68 98.8555ZM186.535 113L181.883 98.8555L181.508 95.9375H183.91L190.285 113H186.535ZM186.324 106.648V109.402H177.312V106.648H186.324ZM205.672 104.07V104.879C205.672 106.176 205.496 107.34 205.145 108.371C204.793 109.402 204.297 110.281 203.656 111.008C203.016 111.727 202.25 112.277 201.359 112.66C200.477 113.043 199.496 113.234 198.418 113.234C197.348 113.234 196.367 113.043 195.477 112.66C194.594 112.277 193.828 111.727 193.18 111.008C192.531 110.281 192.027 109.402 191.668 108.371C191.316 107.34 191.141 106.176 191.141 104.879V104.07C191.141 102.766 191.316 101.602 191.668 100.578C192.02 99.5469 192.516 98.668 193.156 97.9414C193.805 97.2148 194.57 96.6602 195.453 96.2773C196.344 95.8945 197.324 95.7031 198.395 95.7031C199.473 95.7031 200.453 95.8945 201.336 96.2773C202.227 96.6602 202.992 97.2148 203.633 97.9414C204.281 98.668 204.781 99.5469 205.133 100.578C205.492 101.602 205.672 102.766 205.672 104.07ZM202.121 104.879V104.047C202.121 103.141 202.039 102.344 201.875 101.656C201.711 100.969 201.469 100.391 201.148 99.9219C200.828 99.4531 200.438 99.1016 199.977 98.8672C199.516 98.625 198.988 98.5039 198.395 98.5039C197.801 98.5039 197.273 98.625 196.812 98.8672C196.359 99.1016 195.973 99.4531 195.652 99.9219C195.34 100.391 195.102 100.969 194.938 101.656C194.773 102.344 194.691 103.141 194.691 104.047V104.879C194.691 105.777 194.773 106.574 194.938 107.27C195.102 107.957 195.344 108.539 195.664 109.016C195.984 109.484 196.375 109.84 196.836 110.082C197.297 110.324 197.824 110.445 198.418 110.445C199.012 110.445 199.539 110.324 200 110.082C200.461 109.84 200.848 109.484 201.16 109.016C201.473 108.539 201.711 107.957 201.875 107.27C202.039 106.574 202.121 105.777 202.121 104.879ZM220.824 106.918H216.477V104.176H220.824C221.496 104.176 222.043 104.066 222.465 103.848C222.887 103.621 223.195 103.309 223.391 102.91C223.586 102.512 223.684 102.062 223.684 101.562C223.684 101.055 223.586 100.582 223.391 100.145C223.195 99.707 222.887 99.3555 222.465 99.0898C222.043 98.8242 221.496 98.6914 220.824 98.6914H217.695V113H214.18V95.9375H220.824C222.16 95.9375 223.305 96.1797 224.258 96.6641C225.219 97.1406 225.953 97.8008 226.461 98.6445C226.969 99.4883 227.223 100.453 227.223 101.539C227.223 102.641 226.969 103.594 226.461 104.398C225.953 105.203 225.219 105.824 224.258 106.262C223.305 106.699 222.16 106.918 220.824 106.918ZM241.098 110.258V113H232.016V110.258H241.098ZM233.164 95.9375V113H229.648V95.9375H233.164ZM239.914 102.887V105.559H232.016V102.887H239.914ZM241.086 95.9375V98.6914H232.016V95.9375H241.086ZM248.387 113H244.672L244.695 110.258H248.387C249.309 110.258 250.086 110.051 250.719 109.637C251.352 109.215 251.828 108.602 252.148 107.797C252.477 106.992 252.641 106.02 252.641 104.879V104.047C252.641 103.172 252.547 102.402 252.359 101.738C252.18 101.074 251.91 100.516 251.551 100.062C251.191 99.6094 250.75 99.2695 250.227 99.043C249.703 98.8086 249.102 98.6914 248.422 98.6914H244.602V95.9375H248.422C249.562 95.9375 250.605 96.1328 251.551 96.5234C252.504 96.9062 253.328 97.457 254.023 98.1758C254.719 98.8945 255.254 99.7539 255.629 100.754C256.012 101.746 256.203 102.852 256.203 104.07V104.879C256.203 106.09 256.012 107.195 255.629 108.195C255.254 109.195 254.719 110.055 254.023 110.773C253.336 111.484 252.512 112.035 251.551 112.426C250.598 112.809 249.543 113 248.387 113ZM246.664 95.9375V113H243.148V95.9375H246.664ZM262.496 95.9375V113H258.992V95.9375H262.496ZM279.312 104.082V110.844C279.047 111.164 278.637 111.512 278.082 111.887C277.527 112.254 276.812 112.57 275.938 112.836C275.062 113.102 274.004 113.234 272.762 113.234C271.66 113.234 270.656 113.055 269.75 112.695C268.844 112.328 268.062 111.793 267.406 111.09C266.758 110.387 266.258 109.527 265.906 108.512C265.555 107.488 265.379 106.32 265.379 105.008V103.941C265.379 102.629 265.547 101.461 265.883 100.438C266.227 99.4141 266.715 98.5508 267.348 97.8477C267.98 97.1445 268.734 96.6094 269.609 96.2422C270.484 95.875 271.457 95.6914 272.527 95.6914C274.012 95.6914 275.23 95.9336 276.184 96.418C277.137 96.8945 277.863 97.5586 278.363 98.4102C278.871 99.2539 279.184 100.223 279.301 101.316H275.891C275.805 100.738 275.641 100.234 275.398 99.8047C275.156 99.375 274.809 99.0391 274.355 98.7969C273.91 98.5547 273.332 98.4336 272.621 98.4336C272.035 98.4336 271.512 98.5547 271.051 98.7969C270.598 99.0312 270.215 99.3789 269.902 99.8398C269.59 100.301 269.352 100.871 269.188 101.551C269.023 102.23 268.941 103.02 268.941 103.918V105.008C268.941 105.898 269.027 106.688 269.199 107.375C269.371 108.055 269.625 108.629 269.961 109.098C270.305 109.559 270.727 109.906 271.227 110.141C271.727 110.375 272.309 110.492 272.973 110.492C273.527 110.492 273.988 110.445 274.355 110.352C274.73 110.258 275.031 110.145 275.258 110.012C275.492 109.871 275.672 109.738 275.797 109.613V106.59H272.586V104.082H279.312ZM282.148 95.9375H288.512C289.816 95.9375 290.938 96.1328 291.875 96.5234C292.82 96.9141 293.547 97.4922 294.055 98.2578C294.562 99.0234 294.816 99.9648 294.816 101.082C294.816 101.996 294.66 102.781 294.348 103.438C294.043 104.086 293.609 104.629 293.047 105.066C292.492 105.496 291.84 105.84 291.09 106.098L289.977 106.684H284.445L284.422 103.941H288.535C289.152 103.941 289.664 103.832 290.07 103.613C290.477 103.395 290.781 103.09 290.984 102.699C291.195 102.309 291.301 101.855 291.301 101.34C291.301 100.793 291.199 100.32 290.996 99.9219C290.793 99.5234 290.484 99.2188 290.07 99.0078C289.656 98.7969 289.137 98.6914 288.512 98.6914H285.664V113H282.148V95.9375ZM291.688 113L287.797 105.395L291.512 105.371L295.449 112.836V113H291.688ZM308.973 110.258V113H299.891V110.258H308.973ZM301.039 95.9375V113H297.523V95.9375H301.039ZM307.789 102.887V105.559H299.891V102.887H307.789ZM308.961 95.9375V98.6914H299.891V95.9375H308.961ZM322.473 110.258V113H313.391V110.258H322.473ZM314.539 95.9375V113H311.023V95.9375H314.539ZM321.289 102.887V105.559H313.391V102.887H321.289ZM322.461 95.9375V98.6914H313.391V95.9375H322.461Z" fill="#6558F5"/>
<path d="M53.0469 107.34H56.5508C56.4805 108.488 56.1641 109.508 55.6016 110.398C55.0469 111.289 54.2695 111.984 53.2695 112.484C52.2773 112.984 51.082 113.234 49.6836 113.234C48.5898 113.234 47.6094 113.047 46.7422 112.672C45.875 112.289 45.1328 111.742 44.5156 111.031C43.9062 110.32 43.4414 109.461 43.1211 108.453C42.8008 107.445 42.6406 106.316 42.6406 105.066V103.883C42.6406 102.633 42.8047 101.504 43.1328 100.496C43.4688 99.4805 43.9453 98.6172 44.5625 97.9062C45.1875 97.1953 45.9336 96.6484 46.8008 96.2656C47.668 95.8828 48.6367 95.6914 49.707 95.6914C51.1289 95.6914 52.3281 95.9492 53.3047 96.4648C54.2891 96.9805 55.0508 97.6914 55.5898 98.5977C56.1367 99.5039 56.4648 100.535 56.5742 101.691H53.0586C53.0195 101.004 52.8828 100.422 52.6484 99.9453C52.4141 99.4609 52.0586 99.0977 51.582 98.8555C51.1133 98.6055 50.4883 98.4805 49.707 98.4805C49.1211 98.4805 48.6094 98.5898 48.1719 98.8086C47.7344 99.0273 47.3672 99.3594 47.0703 99.8047C46.7734 100.25 46.5508 100.812 46.4023 101.492C46.2617 102.164 46.1914 102.953 46.1914 103.859V105.066C46.1914 105.949 46.2578 106.727 46.3906 107.398C46.5234 108.062 46.7266 108.625 47 109.086C47.2812 109.539 47.6406 109.883 48.0781 110.117C48.5234 110.344 49.0586 110.457 49.6836 110.457C50.418 110.457 51.0234 110.34 51.5 110.105C51.9766 109.871 52.3398 109.523 52.5898 109.062C52.8477 108.602 53 108.027 53.0469 107.34ZM65.7969 98.8555L61.1562 113H57.418L63.7578 95.9375H66.1367L65.7969 98.8555ZM69.6523 113L65 98.8555L64.625 95.9375H67.0273L73.4023 113H69.6523ZM69.4414 106.648V109.402H60.4297V106.648H69.4414ZM74.9844 95.9375H81.3477C82.6523 95.9375 83.7734 96.1328 84.7109 96.5234C85.6562 96.9141 86.3828 97.4922 86.8906 98.2578C87.3984 99.0234 87.6523 99.9648 87.6523 101.082C87.6523 101.996 87.4961 102.781 87.1836 103.438C86.8789 104.086 86.4453 104.629 85.8828 105.066C85.3281 105.496 84.6758 105.84 83.9258 106.098L82.8125 106.684H77.2812L77.2578 103.941H81.3711C81.9883 103.941 82.5 103.832 82.9062 103.613C83.3125 103.395 83.6172 103.09 83.8203 102.699C84.0312 102.309 84.1367 101.855 84.1367 101.34C84.1367 100.793 84.0352 100.32 83.832 99.9219C83.6289 99.5234 83.3203 99.2188 82.9062 99.0078C82.4922 98.7969 81.9727 98.6914 81.3477 98.6914H78.5V113H74.9844V95.9375ZM84.5234 113L80.6328 105.395L84.3477 105.371L88.2852 112.836V113H84.5234ZM97.2969 98.8555L92.6562 113H88.918L95.2578 95.9375H97.6367L97.2969 98.8555ZM101.152 113L96.5 98.8555L96.125 95.9375H98.5273L104.902 113H101.152ZM100.941 106.648V109.402H91.9297V106.648H100.941ZM108.09 95.9375H111.066L115.449 108.465L119.832 95.9375H122.809L116.645 113H114.254L108.09 95.9375ZM106.484 95.9375H109.449L109.988 108.148V113H106.484V95.9375ZM121.449 95.9375H124.426V113H120.91V108.148L121.449 95.9375ZM138.957 110.258V113H129.875V110.258H138.957ZM131.023 95.9375V113H127.508V95.9375H131.023ZM137.773 102.887V105.559H129.875V102.887H137.773ZM138.945 95.9375V98.6914H129.875V95.9375H138.945ZM151.977 110.258V113H143.387V110.258H151.977ZM144.523 95.9375V113H141.008V95.9375H144.523ZM167.234 104.07V104.879C167.234 106.176 167.059 107.34 166.707 108.371C166.355 109.402 165.859 110.281 165.219 111.008C164.578 111.727 163.812 112.277 162.922 112.66C162.039 113.043 161.059 113.234 159.98 113.234C158.91 113.234 157.93 113.043 157.039 112.66C156.156 112.277 155.391 111.727 154.742 111.008C154.094 110.281 153.59 109.402 153.23 108.371C152.879 107.34 152.703 106.176 152.703 104.879V104.07C152.703 102.766 152.879 101.602 153.23 100.578C153.582 99.5469 154.078 98.668 154.719 97.9414C155.367 97.2148 156.133 96.6602 157.016 96.2773C157.906 95.8945 158.887 95.7031 159.957 95.7031C161.035 95.7031 162.016 95.8945 162.898 96.2773C163.789 96.6602 164.555 97.2148 165.195 97.9414C165.844 98.668 166.344 99.5469 166.695 100.578C167.055 101.602 167.234 102.766 167.234 104.07ZM163.684 104.879V104.047C163.684 103.141 163.602 102.344 163.438 101.656C163.273 100.969 163.031 100.391 162.711 99.9219C162.391 99.4531 162 99.1016 161.539 98.8672C161.078 98.625 160.551 98.5039 159.957 98.5039C159.363 98.5039 158.836 98.625 158.375 98.8672C157.922 99.1016 157.535 99.4531 157.215 99.9219C156.902 100.391 156.664 100.969 156.5 101.656C156.336 102.344 156.254 103.141 156.254 104.047V104.879C156.254 105.777 156.336 106.574 156.5 107.27C156.664 107.957 156.906 108.539 157.227 109.016C157.547 109.484 157.938 109.84 158.398 110.082C158.859 110.324 159.387 110.445 159.98 110.445C160.574 110.445 161.102 110.324 161.562 110.082C162.023 109.84 162.41 109.484 162.723 109.016C163.035 108.539 163.273 107.957 163.438 107.27C163.602 106.574 163.684 105.777 163.684 104.879Z" fill="#F7C325"/>
<path d="M22.5068 72H10.3193L10.3955 62.4023H22.5068C25.2744 62.4023 27.6104 61.7676 29.5146 60.498C31.4189 59.2031 32.8662 57.2988 33.8564 54.7852C34.8467 52.2461 35.3418 49.1611 35.3418 45.5303V42.9785C35.3418 40.2363 35.0625 37.8242 34.5039 35.7422C33.9453 33.6348 33.1201 31.8701 32.0283 30.4482C30.9365 29.0264 29.5781 27.96 27.9531 27.249C26.3535 26.5381 24.5127 26.1826 22.4307 26.1826H10.0908V16.5469H22.4307C26.1885 16.5469 29.6162 17.1816 32.7139 18.4512C35.8369 19.7207 38.5283 21.5361 40.7881 23.8975C43.0732 26.2588 44.8379 29.0518 46.082 32.2764C47.3262 35.501 47.9482 39.0938 47.9482 43.0547V45.5303C47.9482 49.4658 47.3262 53.0586 46.082 56.3086C44.8379 59.5332 43.0732 62.3262 40.7881 64.6875C38.5283 67.0234 35.8496 68.8262 32.752 70.0957C29.6543 71.3652 26.2393 72 22.5068 72ZM17.3652 16.5469V72H4.94922V16.5469H17.3652ZM101.764 43.0547V45.5303C101.764 49.7451 101.18 53.5283 100.012 56.8799C98.8691 60.2314 97.2314 63.0879 95.0986 65.4492C92.9912 67.8105 90.4775 69.626 87.5576 70.8955C84.6631 72.1396 81.4512 72.7617 77.9219 72.7617C74.3926 72.7617 71.168 72.1396 68.248 70.8955C65.3281 69.626 62.7891 67.8105 60.6309 65.4492C58.498 63.0879 56.8477 60.2314 55.6797 56.8799C54.5117 53.5283 53.9277 49.7451 53.9277 45.5303V43.0547C53.9277 38.8398 54.5117 35.0566 55.6797 31.7051C56.8477 28.3281 58.4854 25.459 60.5928 23.0977C62.7256 20.7363 65.252 18.9336 68.1719 17.6895C71.0918 16.4199 74.3164 15.7852 77.8457 15.7852C81.375 15.7852 84.5996 16.4199 87.5195 17.6895C90.4395 18.9336 92.9531 20.7363 95.0605 23.0977C97.1934 25.459 98.8438 28.3281 100.012 31.7051C101.18 35.0566 101.764 38.8398 101.764 43.0547ZM89.2334 45.5303V42.9785C89.2334 40.1602 88.9795 37.6719 88.4717 35.5137C87.9639 33.3301 87.2275 31.502 86.2627 30.0293C85.2979 28.5566 84.1045 27.4521 82.6826 26.7158C81.2607 25.9541 79.6484 25.5732 77.8457 25.5732C75.9668 25.5732 74.3291 25.9541 72.9326 26.7158C71.5361 27.4521 70.3555 28.5566 69.3906 30.0293C68.4512 31.502 67.7275 33.3301 67.2197 35.5137C66.7373 37.6719 66.4961 40.1602 66.4961 42.9785V45.5303C66.4961 48.3232 66.7373 50.8115 67.2197 52.9951C67.7275 55.1533 68.4639 56.9814 69.4287 58.4795C70.3936 59.9775 71.5742 61.1074 72.9707 61.8691C74.3926 62.6309 76.043 63.0117 77.9219 63.0117C79.7246 63.0117 81.3242 62.6309 82.7207 61.8691C84.1426 61.1074 85.3359 59.9775 86.3008 58.4795C87.2656 56.9814 87.9893 55.1533 88.4717 52.9951C88.9795 50.8115 89.2334 48.3232 89.2334 45.5303ZM154.056 42.7119V65.0684C153.142 66.1094 151.745 67.2266 149.866 68.4199C148.013 69.6133 145.639 70.6416 142.744 71.5049C139.85 72.3428 136.396 72.7617 132.385 72.7617C128.754 72.7617 125.453 72.1777 122.482 71.0098C119.512 69.8164 116.96 68.0771 114.827 65.792C112.694 63.4814 111.044 60.6631 109.876 57.3369C108.733 54.0107 108.162 50.2021 108.162 45.9111V42.6357C108.162 38.3447 108.733 34.5361 109.876 31.21C111.019 27.8838 112.631 25.0781 114.713 22.793C116.795 20.4824 119.271 18.7305 122.14 17.5371C125.009 16.3438 128.183 15.7471 131.661 15.7471C136.612 15.7471 140.662 16.5469 143.811 18.1465C146.959 19.7207 149.346 21.9043 150.971 24.6973C152.621 27.4902 153.637 30.7021 154.018 34.333H142.059C141.805 32.4795 141.297 30.8799 140.535 29.5342C139.799 28.1885 138.745 27.1602 137.374 26.4492C136.003 25.7129 134.226 25.3447 132.042 25.3447C130.29 25.3447 128.703 25.7129 127.281 26.4492C125.885 27.1602 124.704 28.2393 123.739 29.6865C122.774 31.1338 122.038 32.9365 121.53 35.0947C121.022 37.2275 120.769 39.7158 120.769 42.5596V45.9111C120.769 48.7549 121.022 51.2559 121.53 53.4141C122.063 55.5723 122.838 57.375 123.854 58.8223C124.869 60.2441 126.151 61.3232 127.7 62.0596C129.274 62.7959 131.103 63.1641 133.185 63.1641C134.81 63.1641 136.181 63.0371 137.298 62.7832C138.415 62.5039 139.329 62.1611 140.04 61.7549C140.751 61.3232 141.284 60.9297 141.64 60.5742V51.3574H131.775V42.7119H154.056Z" fill="#6558F5"/>
<path d="M207.224 42.7119V65.0684C206.31 66.1094 204.913 67.2266 203.034 68.4199C201.181 69.6133 198.807 70.6416 195.912 71.5049C193.018 72.3428 189.564 72.7617 185.553 72.7617C181.922 72.7617 178.621 72.1777 175.65 71.0098C172.68 69.8164 170.128 68.0771 167.995 65.792C165.862 63.4814 164.212 60.6631 163.044 57.3369C161.901 54.0107 161.33 50.2021 161.33 45.9111V42.6357C161.33 38.3447 161.901 34.5361 163.044 31.21C164.187 27.8838 165.799 25.0781 167.881 22.793C169.963 20.4824 172.438 18.7305 175.308 17.5371C178.177 16.3438 181.351 15.7471 184.829 15.7471C189.78 15.7471 193.83 16.5469 196.979 18.1465C200.127 19.7207 202.514 21.9043 204.139 24.6973C205.789 27.4902 206.805 30.7021 207.186 34.333H195.227C194.973 32.4795 194.465 30.8799 193.703 29.5342C192.967 28.1885 191.913 27.1602 190.542 26.4492C189.171 25.7129 187.394 25.3447 185.21 25.3447C183.458 25.3447 181.871 25.7129 180.449 26.4492C179.053 27.1602 177.872 28.2393 176.907 29.6865C175.942 31.1338 175.206 32.9365 174.698 35.0947C174.19 37.2275 173.937 39.7158 173.937 42.5596V45.9111C173.937 48.7549 174.19 51.2559 174.698 53.4141C175.231 55.5723 176.006 57.375 177.021 58.8223C178.037 60.2441 179.319 61.3232 180.868 62.0596C182.442 62.7959 184.271 63.1641 186.353 63.1641C187.978 63.1641 189.349 63.0371 190.466 62.7832C191.583 62.5039 192.497 62.1611 193.208 61.7549C193.919 61.3232 194.452 60.9297 194.808 60.5742V51.3574H184.943V42.7119H207.224ZM261.953 43.0547V45.5303C261.953 49.7451 261.369 53.5283 260.201 56.8799C259.059 60.2314 257.421 63.0879 255.288 65.4492C253.181 67.8105 250.667 69.626 247.747 70.8955C244.853 72.1396 241.641 72.7617 238.111 72.7617C234.582 72.7617 231.357 72.1396 228.438 70.8955C225.518 69.626 222.979 67.8105 220.82 65.4492C218.688 63.0879 217.037 60.2314 215.869 56.8799C214.701 53.5283 214.117 49.7451 214.117 45.5303V43.0547C214.117 38.8398 214.701 35.0566 215.869 31.7051C217.037 28.3281 218.675 25.459 220.782 23.0977C222.915 20.7363 225.441 18.9336 228.361 17.6895C231.281 16.4199 234.506 15.7852 238.035 15.7852C241.564 15.7852 244.789 16.4199 247.709 17.6895C250.629 18.9336 253.143 20.7363 255.25 23.0977C257.383 25.459 259.033 28.3281 260.201 31.7051C261.369 35.0566 261.953 38.8398 261.953 43.0547ZM249.423 45.5303V42.9785C249.423 40.1602 249.169 37.6719 248.661 35.5137C248.153 33.3301 247.417 31.502 246.452 30.0293C245.487 28.5566 244.294 27.4521 242.872 26.7158C241.45 25.9541 239.838 25.5732 238.035 25.5732C236.156 25.5732 234.519 25.9541 233.122 26.7158C231.726 27.4521 230.545 28.5566 229.58 30.0293C228.641 31.502 227.917 33.3301 227.409 35.5137C226.927 37.6719 226.686 40.1602 226.686 42.9785V45.5303C226.686 48.3232 226.927 50.8115 227.409 52.9951C227.917 55.1533 228.653 56.9814 229.618 58.4795C230.583 59.9775 231.764 61.1074 233.16 61.8691C234.582 62.6309 236.232 63.0117 238.111 63.0117C239.914 63.0117 241.514 62.6309 242.91 61.8691C244.332 61.1074 245.525 59.9775 246.49 58.4795C247.455 56.9814 248.179 55.1533 248.661 52.9951C249.169 50.8115 249.423 48.3232 249.423 45.5303Z" fill="#F7C325"/>
</svg>
